<svg width="1280" height="720" xmlns="http://www.w3.org/2000/svg" xmlns:xlink="http://www.w3.org/1999/xlink" overflow="hidden"><g><rect x="0" y="0" width="1280" height="720" fill="#FFFFFF"/><path d="M513 134.501C513 122.626 522.626 113 534.501 113L745.499 113C757.374 113 767 122.626 767 134.501L767 220.499C767 232.374 757.374 242 745.499 242L534.501 242C522.626 242 513 232.374 513 220.499Z" stroke="#000000" stroke-width="2" stroke-miterlimit="8" fill="#FFFFFF" fill-rule="evenodd"/><text font-family="Yu Gothic,Yu Gothic_MSFontService,sans-serif" font-weight="700" font-size="24" transform="translate(592 185)">標準出力</text><path d="M104 134.5C104 122.626 113.626 113 125.5 113L337.5 113C349.374 113 359 122.626 359 134.5L359 220.5C359 232.374 349.374 242 337.5 242L125.5 242C113.626 242 104 232.374 104 220.5Z" stroke="#ED7D31" stroke-width="2" stroke-miterlimit="8" fill="#F4B183" fill-rule="evenodd"/><text font-family="Arial,Arial_MSFontService,sans-serif" font-weight="700" font-size="24" transform="translate(221.467 186)">l</text><text font-family="Arial,Arial_MSFontService,sans-serif" font-weight="700" font-size="24" transform="translate(228.133 186)">s</text><path d="M921 505.5C921 493.626 930.626 484 942.5 484L1154.5 484C1166.37 484 1176 493.626 1176 505.5L1176 591.5C1176 603.374 1166.37 613 1154.5 613L942.5 613C930.626 613 921 603.374 921 591.5Z" stroke="#ED7D31" stroke-width="2" stroke-miterlimit="8" fill="#F4B183" fill-rule="evenodd"/><text font-family="Arial,Arial_MSFontService,sans-serif" font-weight="700" font-size="24" transform="translate(1025.2 557)">less</text><path d="M513 505.501C513 493.626 522.626 484 534.501 484L745.499 484C757.374 484 767 493.626 767 505.501L767 591.499C767 603.374 757.374 613 745.499 613L534.501 613C522.626 613 513 603.374 513 591.499Z" stroke="#000000" stroke-width="2" stroke-miterlimit="8" fill="#FFFFFF" fill-rule="evenodd"/><text font-family="Yu Gothic,Yu Gothic_MSFontService,sans-serif" font-weight="700" font-size="24" transform="translate(592 556)">標準入力</text><path d="M359.5 171.833 479.767 171.833 479.767 185.167 359.5 185.167ZM473.1 158.5 513.1 178.5 473.1 198.5Z" fill="#4472C4"/><path d="M767.5 541.833 887.767 541.833 887.767 555.167 767.5 555.167ZM881.1 528.5 921.1 548.5 881.1 568.5Z" fill="#4472C4"/><path d="M647.167 242.5 647.167 255.833 633.833 255.833 633.833 242.5ZM647.167 269.167 647.167 282.5 633.833 282.5 633.833 269.167ZM647.167 295.833 647.167 309.167 633.833 309.167 633.833 295.833ZM647.167 322.5 647.167 335.833 633.833 335.833 633.833 322.5ZM647.167 349.167 647.167 362.5 633.833 362.5 633.833 349.167ZM647.167 375.833 647.167 389.167 633.833 389.167 633.833 375.833ZM647.167 402.5 647.167 415.833 633.833 415.833 633.833 402.5ZM647.167 429.167 647.167 442.5 633.833 442.5 633.833 429.167ZM660.5 443.883 640.5 483.883 620.5 443.883Z"/><path d="M513 321.167C513 313.343 519.343 307 527.167 307L752.833 307C760.657 307 767 313.343 767 321.167L767 377.833C767 385.657 760.657 392 752.833 392L527.167 392C519.343 392 513 385.657 513 377.833Z" stroke="#000000" stroke-width="2" stroke-miterlimit="8" fill="#FFFFFF" fill-rule="evenodd"/><text font-family="Yu Gothic,Yu Gothic_MSFontService,sans-serif" font-weight="700" font-size="24" transform="translate(533.5 343)">パイプ</text><text font-family="Cambria Math,Cambria Math_MSFontService,sans-serif" font-weight="400" font-size="24" transform="translate(612.167 343)">|</text><text font-family="Yu Gothic,Yu Gothic_MSFontService,sans-serif" font-weight="700" font-size="24" transform="translate(626.5 343)">で標準入力</text><text font-family="Yu Gothic,Yu Gothic_MSFontService,sans-serif" font-weight="700" font-size="24" transform="translate(592 372)">につなぐ</text></g></svg>