<svg width="960" height="720" xmlns="http://www.w3.org/2000/svg" xmlns:xlink="http://www.w3.org/1999/xlink" overflow="hidden"><defs><clipPath id="clip0"><rect x="0" y="0" width="960" height="720"/></clipPath></defs><g clip-path="url(#clip0)"><rect x="0" y="0" width="960" height="720" fill="#FFFFFF"/><path d="M0 522.334C0 507.238 12.238 495 27.3344 495L932.666 495C947.762 495 960 507.238 960 522.334L960 631.666C960 646.762 947.762 659 932.666 659L27.3344 659C12.238 659 0 646.762 0 631.666Z" stroke="#000000" stroke-width="2" stroke-miterlimit="8" fill="#FFFFFF" fill-rule="evenodd"/><path d="M505 92.5005C505 80.6261 514.626 71 526.501 71L737.499 71C749.374 71 759 80.6261 759 92.5005L759 178.499C759 190.374 749.374 200 737.499 200L526.501 200C514.626 200 505 190.374 505 178.499Z" stroke="#ED7D31" stroke-width="2" stroke-miterlimit="8" fill="#F4B183" fill-rule="evenodd"/><text font-family="Arial,Arial_MSFontService,sans-serif" font-weight="700" font-size="24" transform="translate(600 144)">xargs</text><path d="M11 542.667C11 534.014 18.0143 527 26.6669 527L197.333 527C205.986 527 213 534.014 213 542.667L213 605.333C213 613.986 205.986 621 197.333 621L26.6669 621C18.0143 621 11 613.986 11 605.333Z" stroke="#ED7D31" stroke-width="2" stroke-miterlimit="8" fill="#F4B183" fill-rule="evenodd"/><text font-family="Yu Gothic,Yu Gothic_MSFontService,sans-serif" font-weight="700" font-size="24" transform="translate(64.2665 581)">コマンド</text><path d="M639.167 200.5 639.167 354.246 625.833 354.246 625.833 200.5ZM652.5 347.579 632.5 387.579 612.5 347.579Z" fill="#4472C4"/><path d="M335 542.667C335 534.014 342.014 527 350.667 527L521.333 527C529.986 527 537 534.014 537 542.667L537 605.333C537 613.986 529.986 621 521.333 621L350.667 621C342.014 621 335 613.986 335 605.333Z" stroke="#FFC000" stroke-width="2" stroke-miterlimit="8" fill="#FFD966" fill-rule="evenodd"/><text font-family="Yu Gothic,Yu Gothic_MSFontService,sans-serif" font-weight="700" font-size="24" transform="translate(405.334 581)">引数</text><text font-family="Arial,Arial_MSFontService,sans-serif" font-weight="700" font-size="24" transform="translate(453.334 581)">1</text><path d="M241.5 562.828 264.828 562.828 264.828 539.5 284.172 539.5 284.172 562.828 307.5 562.828 307.5 586.172 284.172 586.172 284.172 609.5 264.828 609.5 264.828 586.172 241.5 586.172Z" stroke="#172C51" stroke-width="1.33333" stroke-miterlimit="8" fill="#4472C4" fill-rule="evenodd"/><text font-family="Yu Gothic,Yu Gothic_MSFontService,sans-serif" font-weight="700" font-size="24" transform="translate(40.2666 477)">コマンド</text><text font-family="Yu Gothic,Yu Gothic_MSFontService,sans-serif" font-weight="700" font-size="24" transform="translate(136.267 477)">全体</text><path d="M343.833 71.5001 513.167 71.5001C536.547 71.5001 555.5 90.9757 555.5 115 555.5 139.024 536.547 158.5 513.167 158.5L343.833 158.5C320.453 158.5 301.5 139.024 301.5 115 301.5 90.9757 320.453 71.5001 343.833 71.5001Z" fill="#B4C7E7" fill-rule="evenodd"/><path d="M513.167 158.5C489.787 158.5 470.833 139.024 470.833 115 470.833 90.9757 489.787 71.5001 513.167 71.5001" stroke="#4472C4" stroke-width="1.33333" stroke-miterlimit="8" fill="none" fill-rule="evenodd"/><path d="M343.833 71.5001 513.167 71.5001C536.547 71.5001 555.5 90.9757 555.5 115 555.5 139.024 536.547 158.5 513.167 158.5L343.833 158.5C320.453 158.5 301.5 139.024 301.5 115 301.5 90.9757 320.453 71.5001 343.833 71.5001Z" stroke="#4472C4" stroke-width="1.33333" stroke-miterlimit="8" fill="none" fill-rule="evenodd"/><text font-family="Yu Gothic,Yu Gothic_MSFontService,sans-serif" font-weight="700" font-size="24" transform="translate(358.73 122)">標準入力</text><path d="M572 543.5C572 534.94 578.94 528 587.5 528L758.5 528C767.06 528 774 534.94 774 543.5L774 605.5C774 614.06 767.06 621 758.5 621L587.5 621C578.94 621 572 614.06 572 605.5Z" stroke="#FFC000" stroke-width="2" stroke-miterlimit="8" fill="#FFD966" fill-rule="evenodd"/><text font-family="Yu Gothic,Yu Gothic_MSFontService,sans-serif" font-weight="700" font-size="24" transform="translate(642.616 582)">引数</text><text font-family="Arial,Arial_MSFontService,sans-serif" font-weight="700" font-size="24" transform="translate(690.616 582)">2</text><path d="M891.5 608C891.5 604.41 894.186 601.5 897.5 601.5 900.814 601.5 903.5 604.41 903.5 608 903.5 611.59 900.814 614.5 897.5 614.5 894.186 614.5 891.5 611.59 891.5 608Z" stroke="#FFC000" stroke-width="1.33333" stroke-miterlimit="8" fill="#FFD966" fill-rule="evenodd"/><path d="M851.5 608.5C851.5 605.186 854.186 602.5 857.5 602.5 860.814 602.5 863.5 605.186 863.5 608.5 863.5 611.814 860.814 614.5 857.5 614.5 854.186 614.5 851.5 611.814 851.5 608.5Z" stroke="#FFC000" stroke-width="1.33333" stroke-miterlimit="8" fill="#FFD966" fill-rule="evenodd"/><path d="M810.5 608.5C810.5 605.186 812.963 602.5 816 602.5 819.038 602.5 821.5 605.186 821.5 608.5 821.5 611.814 819.038 614.5 816 614.5 812.963 614.5 810.5 611.814 810.5 608.5Z" stroke="#FFC000" stroke-width="1.33333" stroke-miterlimit="8" fill="#FFD966" fill-rule="evenodd"/><path d="M335 480.164C335 460.789 350.707 445.082 370.082 445.082L596.418 445.082C615.793 445.082 631.5 429.375 631.5 410 631.5 429.375 647.207 445.082 666.582 445.082L892.918 445.082C912.293 445.082 928 460.789 928 480.164M928 760.836C928 780.211 912.293 795.918 892.918 795.918L666.582 795.918C647.207 795.918 631.5 811.625 631.5 831 631.5 811.625 615.793 795.918 596.418 795.918L370.082 795.918C350.707 795.918 335 780.211 335 760.836" stroke="#000000" stroke-width="4" stroke-miterlimit="8" fill="none" fill-rule="evenodd"/><text font-family="Yu Gothic,Yu Gothic_MSFontService,sans-serif" font-weight="700" font-size="24" transform="translate(495.441 268)">コマンドの</text><text font-family="Yu Gothic,Yu Gothic_MSFontService,sans-serif" font-weight="700" font-size="24" transform="translate(495.441 297)">引数に渡す</text></g></svg>