<svg width="960" height="720" xmlns="http://www.w3.org/2000/svg" xmlns:xlink="http://www.w3.org/1999/xlink" overflow="hidden"><g><rect x="0" y="0" width="960" height="720" fill="#FFFFFF"/><path d="M127 471.334C127 453.476 141.476 439 159.334 439L797.666 439C815.524 439 830 453.476 830 471.334L830 600.666C830 618.524 815.524 633 797.666 633L159.334 633C141.476 633 127 618.524 127 600.666Z" stroke="#000000" stroke-width="2" stroke-miterlimit="8" fill="#FFFFFF" fill-rule="evenodd"/><path d="M555 130.5C555 118.626 564.626 109 576.5 109L788.5 109C800.374 109 810 118.626 810 130.5L810 216.5C810 228.374 800.374 238 788.5 238L576.5 238C564.626 238 555 228.374 555 216.5Z" stroke="#ED7D31" stroke-width="2" stroke-miterlimit="8" fill="#F4B183" fill-rule="evenodd"/><text font-family="Arial,Arial_MSFontService,sans-serif" font-weight="700" font-size="24" transform="translate(650.667 182)">xarg</text><text font-family="Arial,Arial_MSFontService,sans-serif" font-weight="700" font-size="24" transform="translate(701.333 182)">s</text><path d="M147 490.5C147 478.626 156.626 469 168.5 469L380.5 469C392.374 469 402 478.626 402 490.5L402 576.5C402 588.374 392.374 598 380.5 598L168.5 598C156.626 598 147 588.374 147 576.5Z" stroke="#ED7D31" stroke-width="2" stroke-miterlimit="8" fill="#F4B183" fill-rule="evenodd"/><text font-family="Arial,Arial_MSFontService,sans-serif" font-weight="700" font-size="24" transform="translate(258.133 542)">w</text><text font-family="Arial,Arial_MSFontService,sans-serif" font-weight="700" font-size="24" transform="translate(276.8 542)">c</text><path d="M147 130.5C147 118.626 156.626 109 168.5 109L380.5 109C392.374 109 402 118.626 402 130.5L402 216.5C402 228.374 392.374 238 380.5 238L168.5 238C156.626 238 147 228.374 147 216.5Z" stroke="#000000" stroke-width="2" stroke-miterlimit="8" fill="#FFFFFF" fill-rule="evenodd"/><text font-family="Yu Gothic,Yu Gothic_MSFontService,sans-serif" font-weight="700" font-size="24" transform="translate(226.133 181)">標準入力</text><path d="M402.5 166.833 522.767 166.833 522.767 180.167 402.5 180.167ZM516.1 153.5 556.1 173.5 516.1 193.5Z" fill="#4472C4"/><path d="M690.167 238.5 690.167 435.977 676.833 435.977 676.833 238.5ZM703.5 429.31 683.5 469.31 663.5 429.31Z" fill="#4472C4"/><path d="M555 493.5C555 481.626 564.626 472 576.5 472L788.5 472C800.374 472 810 481.626 810 493.5L810 579.5C810 591.374 800.374 601 788.5 601L576.5 601C564.626 601 555 591.374 555 579.5Z" stroke="#FFC000" stroke-width="2" stroke-miterlimit="8" fill="#FFD966" fill-rule="evenodd"/><text font-family="Yu Gothic,Yu Gothic_MSFontService,sans-serif" font-weight="700" font-size="24" transform="translate(658.667 544)">引数</text><path d="M431.5 520.371 464.371 520.371 464.371 487.5 491.629 487.5 491.629 520.371 524.5 520.371 524.5 548.629 491.629 548.629 491.629 581.5 464.371 581.5 464.371 548.629 431.5 548.629Z" stroke="#172C51" stroke-width="1.33333" stroke-miterlimit="8" fill="#4472C4" fill-rule="evenodd"/><path d="M555 303.334C555 295.417 561.417 289 569.334 289L795.666 289C803.583 289 810 295.417 810 303.334L810 360.666C810 368.583 803.583 375 795.666 375L569.334 375C561.417 375 555 368.583 555 360.666Z" stroke="#000000" stroke-width="2" stroke-miterlimit="8" fill="#FFFFFF" fill-rule="evenodd"/><text font-family="Yu Gothic,Yu Gothic_MSFontService,sans-serif" font-weight="700" font-size="24" transform="translate(622.667 325)">コマンド</text><text font-family="Yu Gothic,Yu Gothic_MSFontService,sans-serif" font-weight="700" font-size="24" transform="translate(718.667 325)">の</text><text font-family="Yu Gothic,Yu Gothic_MSFontService,sans-serif" font-weight="700" font-size="24" transform="translate(622.667 354)">引数</text><text font-family="Yu Gothic,Yu Gothic_MSFontService,sans-serif" font-weight="700" font-size="24" transform="translate(670.667 354)">に渡す</text><text font-family="Arial,Arial_MSFontService,sans-serif" font-weight="700" font-size="24" transform="translate(150.933 428)">w</text><text font-family="Arial,Arial_MSFontService,sans-serif" font-weight="700" font-size="24" transform="translate(169.6 428)">c</text><text font-family="Yu Gothic,Yu Gothic_MSFontService,sans-serif" font-weight="700" font-size="24" transform="translate(182.933 428)">コマンド</text></g></svg>